# xmcd CD database file
#
# Track frame offsets:
#	150
#	14681
#	32171
#	47640
#	68895
#	80424
#	96465
#	117979
#	135201
#	154152
#	174810
#	189120
#
# Disc length: 2725 seconds
#
# Revision: 1
# Processed by: cddbd v1.5.2PL0 Copyright (c) Steve Scherf et al.
# Submitted via: CDex 1.90
#
DISCID=930aa30c
DTITLE=Wayne Ellington - Unforgettable
DYEAR=1900
DGENRE=Jazz
TTITLE0=I Would Do Anything For You
TTITLE1=The More I See You
TTITLE2=Send For Me
TTITLE3=When I Fall In Love
TTITLE4=Let's Face The Music
TTITLE5=Calypso Blues
TTITLE6=Unforgettable
TTITLE7=Route 66
TTITLE8=Mona Lisa
TTITLE9=Amazing Grace
TTITLE10=Don't Get Around Much Anymore
TTITLE11=Smile
EXTD=
EXTT0=
EXTT1=
EXTT2=
EXTT3=
EXTT4=
EXTT5=
EXTT6=
EXTT7=
EXTT8=
EXTT9=
EXTT10=
EXTT11=
PLAYORDER=
